<svg xmlns="http://www.w3.org/2000/svg" viewBox="0 0 400 120" fill="none">
  <!--  mark: A fork and spoon forming a smile -->
  <g transform="translate(10, 10)">
    <!-- Fork -->
    <path d="M24 8C24 5 22 3 20 3C18 3 16 5 16 8V28C16 30 14 32 12 32C10 32 8 30 8 28V8C8 5 6 3 4 3C2 3 0 5 0 8V32C0 38 5 42 12 42C19 42 24 38 24 32V8Z" fill="#FF6B35"/>
    <!-- Fork prongs -->
    <rect x="2" y="0" width="3" height="12" rx="1.5" fill="#FF6B35"/>
    <rect x="8" y="0" width="3" height="12" rx="1.5" fill="#FF6B35"/>
    <rect x="14" y="0" width="3" height="12" rx="1.5" fill="#FF6B35"/>
    <rect x="20" y="0" width="3" height="12" rx="1.5" fill="#FF6B35"/>
    <!-- Spoon -->
    <path d="M40 42C40 49 45 54 52 54C59 54 64 49 64 42V8C64 5 62 3 60 3C58 3 56 5 56 8V28C56 30 54 32 52 32C50 32 48 30 48 28V8C48 5 46 3 44 3C42 3 40 5 40 8V42Z" fill="#FF6B35"/>
    <!-- Smile curve connecting them -->
    <path d="M22 68C28 80 44 82 50 70" stroke="#2E8B57" stroke-width="4" stroke-linecap="round" fill="none"/>
  </g>
  <!-- "yum" text (first part, dark) -->
  <text x="120" y="72" font-family="'SF Pro Display', 'Helvetica Neue', Arial, sans-serif" font-size="52" font-weight="700" fill="#1A1C1E" letter-spacing="-1">yum</text>
  <!-- "l" text (second part, orange, last y replaced by spatula) -->
  <text x="248" y="72" font-family="'SF Pro Display', 'Helvetica Neue', Arial, sans-serif" font-size="52" font-weight="700" fill="#FF6B35" letter-spacing="-1">l</text>
  <!-- Y-shaped spatula replacing last "y" -->
  <g transform="translate(268, 18)">
    <!-- Spatula head forming Y silhouette -->
    <path d="M17 6 C6 6 0 14 0 24 C0 32 6 36 17 36 C28 36 34 32 34 24 C34 14 28 6 17 6Z" fill="#FF6B35"/>
    <!-- Spatula slot -->
    <rect x="14" y="14" width="6" height="18" rx="1" fill="#FFFFFF"/>
    <!-- Spatula handle -->
    <rect x="15.5" y="36" width="3" height="24" rx="1.5" fill="#FF6B35"/>
  </g>
  <!-- Subtle underline accent -->
  <line x1="120" y1="84" x2="330" y2="84" stroke="#FF6B35" stroke-width="3" stroke-linecap="round" opacity="0.3"/>
</svg>
